<svg width="80" height="80" viewBox="0 0 80 80" fill="none" xmlns="http://www.w3.org/2000/svg">
<g clip-path="url(#clip0_57_14442)">
<path d="M44.2661 69.9818L42.9114 73.2712C42.6424 73.9224 42.0271 74.3634 41.3346 74.393C40.8771 74.4105 40.4158 74.4234 39.9499 74.4234C24.0049 74.4149 9.89707 63.138 6.40145 47.5996L0.973633 48.8287C2.9352 57.5443 7.85863 65.4549 14.8377 71.1084C21.8977 76.8259 30.7914 79.9824 39.8899 79.9996H39.9711C40.5055 79.9996 41.0355 79.9868 41.5652 79.9652C44.4202 79.8455 46.9714 78.0509 48.0614 75.3912L49.8305 71.0912L44.2661 69.9818Z" fill="url(#paint0_linear_57_14442)"/>
<path d="M1.41875 50.5984C0.475688 47.1454 -0.00145601 43.5818 3.3374e-06 40.0024C3.3374e-06 23.599 10.2697 8.60023 25.5569 2.68555L27.5613 7.8893C14.4025 12.9815 5.56438 25.8862 5.56438 40.0024C5.56254 43.0825 5.97221 46.149 6.7825 49.1205L1.41875 50.5984Z" fill="url(#paint1_linear_57_14442)"/>
<path d="M70.529 24.1556C64.58 12.6987 52.87 5.58063 39.9762 5.58063C35.4075 5.58063 30.9675 6.46281 26.7875 8.1975L24.6553 3.045C29.5143 1.02813 34.6684 0 39.9762 0C54.9556 0 68.5543 8.26594 75.465 21.5772L70.529 24.1556Z" fill="url(#paint2_linear_57_14442)"/>
<path d="M28.0397 31.7492C31.2666 31.7492 33.895 33.4751 35.2454 36.4861L35.3522 36.7217L40.771 34.8757L40.6557 34.5973C38.5572 29.4707 33.7238 26.2842 28.04 26.2842C24.0441 26.2842 20.796 27.5692 18.1119 30.2073C15.4454 32.8286 14.0947 36.1261 14.0947 40.0107C14.0947 43.8611 15.4454 47.142 18.1119 49.7629C20.796 52.4014 24.0441 53.6861 28.04 53.6861C33.7238 53.6861 38.5572 50.4995 40.6557 45.3773L40.7713 45.0992L35.3438 43.2486L35.241 43.4929C34.0316 46.4523 31.3391 48.2211 28.0397 48.2211C25.7919 48.2211 23.8944 47.4332 22.3897 45.8826C20.8688 44.3107 20.0994 42.3364 20.0994 40.0151C20.0994 37.6767 20.8516 35.7407 22.39 34.0964C23.89 32.537 25.7916 31.7492 28.0397 31.7492Z" fill="#09293F"/>
<path d="M61.9814 26.7891L54.2589 46.3919L46.4849 26.7891H40.1255L51.028 53.5444L43.2711 72.4147L48.8311 73.5241L67.9902 26.7891H61.9814Z" fill="#09293F"/>
<path d="M75.4652 21.5775C78.2787 27.0581 80.0002 33.4956 80.0002 40.0847C80.0002 55.4597 71.353 68.8084 58.6711 75.5043L55.9312 70.6456C66.928 64.9106 74.4396 53.3775 74.4396 40.0847C74.4396 34.3159 73.0293 28.9312 70.5293 24.1556L75.4652 21.5775Z" fill="url(#paint3_linear_57_14442)"/>
</g>
<defs>
<linearGradient id="paint0_linear_57_14442" x1="309.749" y1="1474.11" x2="4129.02" y2="2493.88" gradientUnits="userSpaceOnUse">
<stop stop-color="#315C55"/>
<stop offset="1" stop-color="#09293F"/>
</linearGradient>
<linearGradient id="paint1_linear_57_14442" x1="1496.52" y1="1308.88" x2="1141.03" y2="4769.62" gradientUnits="userSpaceOnUse">
<stop stop-color="#4FB38D"/>
<stop offset="1" stop-color="#315C55"/>
</linearGradient>
<linearGradient id="paint2_linear_57_14442" x1="731.367" y1="1207.78" x2="3550.18" y2="1724.54" gradientUnits="userSpaceOnUse">
<stop stop-color="#4FB38D"/>
<stop offset="1" stop-color="#97DEC0"/>
</linearGradient>
<linearGradient id="paint3_linear_57_14442" x1="1352.29" y1="1687.5" x2="-184.836" y2="4565.38" gradientUnits="userSpaceOnUse">
<stop stop-color="#97DEC0"/>
<stop offset="1" stop-color="#FFFFF0" stop-opacity="0"/>
</linearGradient>
<clipPath id="clip0_57_14442">
<rect width="80" height="80" fill="white"/>
</clipPath>
</defs>
</svg>
