<svg width="88" height="80" viewBox="0 0 88 80" fill="none" xmlns="http://www.w3.org/2000/svg">
<path d="M44.2041 80.0005L60.1949 30.7861H28.2129L44.2037 80.0005H44.2041Z" fill="#E24329"/>
<path d="M44.2043 79.9996L28.2131 30.7852H5.80273L44.2043 79.9996Z" fill="#FC6D26"/>
<path d="M5.80261 30.7852L0.943316 45.7413C0.727257 46.4062 0.727227 47.1224 0.943231 47.7873C1.15924 48.4522 1.58018 49.0316 2.14575 49.4426L44.2041 79.9998L5.80227 30.7855L5.80261 30.7852Z" fill="#FCA326"/>
<path d="M5.80273 30.7855H28.2131L18.5824 1.14383C18.0868 -0.381447 15.9291 -0.381108 15.4338 1.14383L5.80273 30.7855Z" fill="#E24329"/>
<path d="M44.2044 79.9996L60.1953 30.7852H82.606L44.2041 79.9996H44.2044Z" fill="#FC6D26"/>
<path d="M82.6056 30.7852L87.4648 45.7413C87.6809 46.4062 87.6809 47.1224 87.4648 47.7873C87.2487 48.4523 86.8277 49.0317 86.2621 49.4426L44.2041 79.9998L82.6056 30.7855V30.7852Z" fill="#FCA326"/>
<path d="M82.6055 30.7855H60.1948L69.8258 1.14383C70.3215 -0.381447 72.4792 -0.381108 72.9745 1.14383L82.6055 30.7855Z" fill="#E24329"/>
</svg>
