<svg width="89" height="86" viewBox="0 0 89 86" fill="none" xmlns="http://www.w3.org/2000/svg">
<path d="M78.2674 20.7924C77.7942 19.2782 76.6585 18.0479 75.2389 17.2907L46.3735 3.4732C45.6164 3.09464 44.7646 3 44.0075 3C43.2503 3 42.3986 3 41.6414 3.18928L12.7761 17.1015C11.3565 17.7639 10.3154 18.9943 9.93684 20.6032L2.8388 51.7399C2.55487 53.3488 2.93344 54.9577 3.87984 56.2827L23.849 80.9839C24.9847 82.1196 26.5936 82.8767 28.2025 82.9713H60.0017C61.7053 83.1606 63.3141 82.4035 64.3552 80.9839L84.3244 56.2827C85.2708 54.9577 85.6493 53.3488 85.4601 51.7399L78.2674 20.7924Z" fill="white" stroke="white" stroke-width="5" stroke-miterlimit="10"/>
<path d="M78.2674 20.7924C77.7942 19.2782 76.6585 18.0479 75.2389 17.2907L46.3735 3.4732C45.6164 3.09464 44.7646 3 44.0075 3C43.2503 3 42.3986 3 41.6414 3.18928L12.7761 17.1015C11.3565 17.7639 10.3154 18.9943 9.93684 20.6032L2.8388 51.7399C2.55487 53.3488 2.93344 54.9577 3.87984 56.2827L23.849 80.9839C24.9847 82.1196 26.5936 82.8767 28.2025 82.9713H60.0017C61.7053 83.1606 63.3141 82.4035 64.3552 80.9839L84.3244 56.2827C85.2708 54.9577 85.6493 53.3488 85.4601 51.7399L78.2674 20.7924Z" fill="#326DE6"/>
<path d="M73.8195 50.5096C73.7248 50.5096 73.6302 50.5096 73.6302 50.4149C73.6302 50.3203 73.4409 50.3203 73.2516 50.3203C72.8731 50.2257 72.4945 50.2257 72.116 50.2257C71.9267 50.2257 71.7374 50.2257 71.5481 50.131H71.4535C70.4124 50.0364 69.2767 49.8471 68.2357 49.5632C67.9518 49.4685 67.6678 49.1846 67.5732 48.9007L66.8161 48.7114C67.1946 45.9668 67.0054 43.1276 66.4375 40.383C65.775 37.6385 64.6393 34.9885 63.1251 32.6225L63.6929 32.0547V31.96C63.6929 31.6761 63.7876 31.2975 63.9769 31.1082C64.8286 30.3511 65.6804 29.7833 66.6268 29.2154C66.8161 29.1208 67.0054 29.0262 67.1946 28.9315C67.5732 28.7422 67.8571 28.553 68.2357 28.3637C68.3303 28.269 68.425 28.269 68.5196 28.1744C68.6142 28.0798 68.5196 28.0797 68.5196 27.9851C69.3714 27.3226 69.5607 26.1869 68.8982 25.3352C68.6142 24.9566 68.0464 24.6727 67.5732 24.6727C67.1 24.6727 66.6268 24.862 66.2482 25.1459L66.1536 25.2405C66.0589 25.3352 65.9643 25.4298 65.8697 25.4298C65.5857 25.7137 65.3018 25.9977 65.1125 26.2816C65.0179 26.4709 64.8286 26.5655 64.734 26.6601C64.0715 27.4173 63.2197 28.1744 62.368 28.7422C62.1787 28.8369 61.9894 28.9315 61.8001 28.9315C61.7055 28.9315 61.5162 28.9315 61.4216 28.8369H61.3269L60.5698 29.3101C59.8127 28.553 58.9609 27.7958 58.2038 27.0387C54.7021 24.2941 50.3486 22.5906 45.9005 22.1174L45.8059 21.3603V21.4549C45.5219 21.2656 45.4273 20.9817 45.3327 20.6978C45.3327 19.6567 45.3327 18.6157 45.5219 17.48V17.3854C45.5219 17.1961 45.6166 17.0068 45.6166 16.8175C45.7112 16.439 45.7112 16.0604 45.8059 15.6818V15.114C45.9005 14.1676 45.1434 13.2212 44.197 13.1265C43.6291 13.0319 43.0613 13.3158 42.5881 13.789C42.2095 14.1676 42.0202 14.6408 42.0202 15.114V15.5872C42.0202 15.9658 42.1149 16.3443 42.2095 16.7229C42.3042 16.9122 42.3042 17.1014 42.3042 17.2907V17.3854C42.4934 18.4264 42.4934 19.4675 42.4934 20.6031C42.3988 20.8871 42.3042 21.171 42.0202 21.3603V21.5495L41.9256 22.3067C40.8845 22.4013 39.8435 22.5906 38.7078 22.7799C34.2597 23.7263 30.1902 26.0923 27.067 29.4047L26.4992 29.0262H26.4045C26.3099 29.0262 26.2153 29.1208 26.026 29.1208C25.8367 29.1208 25.6474 29.0262 25.4581 28.9315C24.6064 28.269 23.7546 27.5119 23.0921 26.7548C22.9975 26.5655 22.8082 26.4709 22.7135 26.3762C22.4296 26.0923 22.2403 25.8084 21.9564 25.5245C21.8618 25.4298 21.7671 25.4298 21.6725 25.3352C21.5779 25.2405 21.5779 25.2405 21.5779 25.2405C21.1993 24.9566 20.7261 24.7673 20.2529 24.7673C19.685 24.7673 19.2118 24.9566 18.9279 25.4298C18.3601 26.2816 18.5494 27.4173 19.3065 28.0798C19.4011 28.0798 19.4011 28.1744 19.4011 28.1744C19.4011 28.1744 19.5904 28.3637 19.685 28.3637C19.969 28.553 20.3475 28.7422 20.7261 28.9315C20.9154 29.0262 21.1047 29.1208 21.2939 29.2154C22.2403 29.7833 23.1867 30.3511 23.9439 31.1082C24.1332 31.2975 24.3224 31.6761 24.2278 31.96V31.8654L24.7956 32.4332C24.701 32.6225 24.6064 32.7171 24.5117 32.9064C21.5779 37.5438 20.3475 43.033 21.1993 48.4275L20.4422 48.6168C20.4422 48.7114 20.3475 48.7114 20.3475 48.7114C20.2529 48.9953 19.969 49.1846 19.685 49.3739C18.644 49.6578 17.603 49.8471 16.4673 49.9417C16.278 49.9417 16.0887 49.9417 15.8994 50.0364C15.5209 50.0364 15.1423 50.131 14.7637 50.131C14.6691 50.131 14.5745 50.2257 14.3852 50.2257C14.2905 50.2257 14.2905 50.2257 14.1959 50.3203C13.1548 50.5096 12.4924 51.456 12.6816 52.497C12.8709 53.3488 13.7227 53.9166 14.5745 53.822C14.7637 53.822 14.8584 53.822 15.0477 53.7274C15.1423 53.7274 15.1423 53.7274 15.1423 53.6327C15.1423 53.5381 15.4262 53.6327 15.5209 53.6327C15.8994 53.5381 16.278 53.3488 16.5619 53.2542C16.7512 53.1595 16.9405 53.0649 17.1298 53.0649H17.2244C18.2654 52.6863 19.2118 52.4024 20.3475 52.2131H20.4422C20.7261 52.2131 21.01 52.3077 21.1993 52.497C21.2939 52.497 21.2939 52.5917 21.2939 52.5917L22.1457 52.497C23.5653 56.8505 26.2153 60.7308 29.9062 63.57C30.758 64.2325 31.5151 64.8003 32.4615 65.2735L31.9883 65.936C31.9883 66.0306 32.083 66.0306 32.083 66.0306C32.2722 66.3146 32.2722 66.6931 32.1776 66.977C31.799 67.9235 31.2312 68.8699 30.6634 69.7216V69.8163C30.5687 70.0055 30.4741 70.1002 30.2848 70.2895C30.0955 70.4787 29.9062 70.8573 29.6223 71.2359C29.5277 71.3305 29.5277 71.4252 29.433 71.5198C29.433 71.5198 29.433 71.6144 29.3384 71.6144C28.8652 72.5608 29.2437 73.6965 30.0955 74.1697C30.2848 74.2644 30.5687 74.359 30.758 74.359C31.5151 74.359 32.1776 73.8858 32.5562 73.2233C32.5562 73.2233 32.5562 73.1287 32.6508 73.1287C32.6508 73.034 32.7455 72.9394 32.8401 72.8448C32.9347 72.4662 33.124 72.1823 33.2187 71.8037L33.4079 71.2359C33.6919 70.1948 34.1651 69.2484 34.6383 68.302C34.8275 68.0181 35.1115 67.8288 35.3954 67.7342C35.49 67.7342 35.49 67.7342 35.49 67.6395L35.8686 66.8824C38.5185 67.9235 41.2631 68.3967 44.1023 68.3967C45.8059 68.3967 47.5094 68.2074 49.2129 67.7342C50.254 67.5449 51.295 67.1663 52.2414 66.8824L52.62 67.5449C52.7146 67.5449 52.7146 67.5449 52.7146 67.6395C52.9985 67.7342 53.2825 67.9235 53.4717 68.2074C53.945 69.1538 54.4182 70.1002 54.7021 71.1412V71.2359L54.8914 71.8037C54.986 72.1823 55.0806 72.5608 55.2699 72.8448C55.3646 72.9394 55.3646 73.034 55.4592 73.1287C55.4592 73.1287 55.4592 73.2233 55.5538 73.2233C55.9324 73.8858 56.5949 74.359 57.352 74.359C57.6359 74.359 57.8252 74.2644 58.1091 74.1697C58.4877 73.9804 58.8663 73.6019 58.9609 73.1287C59.0555 72.6555 59.0555 72.1823 58.8663 71.7091C58.8663 71.6144 58.7716 71.6144 58.7716 71.6144C58.7716 71.5198 58.677 71.4252 58.5823 71.3305C58.3931 70.9519 58.2038 70.668 57.9199 70.3841C57.8252 70.1948 57.7306 70.1002 57.5413 69.9109V69.7216C56.8788 68.8699 56.4056 67.9235 56.027 66.977C55.9324 66.6931 55.9324 66.3146 56.1217 66.0306C56.1217 65.936 56.2163 65.936 56.2163 65.936L55.9324 65.1789C60.7591 62.245 64.4501 57.7023 66.1536 52.3077L66.9107 52.4024C67.0054 52.4024 67.0054 52.3077 67.0054 52.3077C67.1946 52.1185 67.4786 52.0238 67.7625 52.0238H67.8571C68.8982 52.2131 69.9392 52.497 70.8856 52.8756H70.9803C71.1695 52.9702 71.3588 53.0649 71.5481 53.0649C71.9267 53.2542 72.2106 53.4434 72.5892 53.5381C72.6838 53.5381 72.7784 53.6327 72.9677 53.6327C73.0624 53.6327 73.0624 53.6327 73.157 53.7274C73.3463 53.822 73.4409 53.822 73.6302 53.822C74.482 53.822 75.2391 53.2542 75.523 52.497C75.4284 51.456 74.6712 50.6989 73.8195 50.5096ZM46.4683 47.5757L43.913 48.806L41.3577 47.5757L40.6953 44.8311L42.4934 42.5598H45.3327L47.1308 44.8311L46.4683 47.5757ZM61.8948 41.4241C62.368 43.4115 62.4626 45.399 62.2733 47.3864L53.2825 44.8311C52.4307 44.6419 51.9575 43.7901 52.1468 42.9383C52.2414 42.6544 52.3361 42.4651 52.5253 42.2758L59.6234 35.8403C60.6644 37.5438 61.4216 39.4366 61.8948 41.4241ZM56.7842 32.3386L49.0236 37.8277C48.3612 38.2063 47.4147 38.1117 46.9415 37.4492C46.7523 37.2599 46.6576 37.0706 46.6576 36.7867L46.0898 27.228C50.254 27.7012 53.945 29.4994 56.7842 32.3386ZM39.6542 27.5119L41.547 27.1333L41.0738 36.5974C41.0738 37.4492 40.3167 38.1117 39.4649 38.1117C39.181 38.1117 38.9917 38.017 38.7078 37.9224L30.8526 32.3386C33.3133 29.9726 36.3418 28.269 39.6542 27.5119ZM28.1081 35.8403L35.1115 42.0866C35.774 42.6544 35.8686 43.6008 35.3008 44.2633C35.1115 44.5472 34.9222 44.6419 34.5436 44.7365L25.3635 47.3864C25.0796 43.4115 26.026 39.342 28.1081 35.8403ZM26.4992 51.8345L35.8686 50.2257C36.6257 50.2257 37.3828 50.6989 37.4775 51.456C37.5721 51.7399 37.5721 52.1185 37.3828 52.4024L33.7865 61.1093C30.4741 58.9326 27.8241 55.6202 26.4992 51.8345ZM47.9826 63.57C46.6576 63.8539 45.3327 64.0432 43.913 64.0432C41.9256 64.0432 39.8435 63.6646 37.9507 63.0968L42.5881 54.6738C43.0613 54.1059 43.8184 53.9166 44.4809 54.2952C44.7648 54.4845 44.9541 54.6738 45.238 54.9577L49.7808 63.1914C49.2129 63.2861 48.6451 63.3807 47.9826 63.57ZM59.5287 55.3362C58.1091 57.6076 56.1217 59.5951 53.8503 61.0147L50.1593 52.1185C49.97 51.3613 50.3486 50.6042 51.0111 50.3203C51.295 50.2257 51.5789 50.131 51.8629 50.131L61.3269 51.7399C60.8537 53.0649 60.2859 54.2952 59.5287 55.3362Z" fill="white"/>
</svg>
