<svg width="107" height="80" viewBox="0 0 107 80" fill="none" xmlns="http://www.w3.org/2000/svg">
<g clip-path="url(#clip0_57_14451)">
<path d="M35.1583 45.1463C31.1767 46.2763 28.5642 48.2576 26.8433 50.2372C28.4917 48.7951 30.6996 47.4709 33.6775 46.6268C36.7237 45.7634 39.3225 45.7697 41.47 46.1843V44.5051C39.6379 44.3376 37.5379 44.4709 35.1583 45.1463ZM26.6612 31.0309L11.8737 34.9268C11.8737 34.9268 12.1429 35.3076 12.6421 35.8155L25.1804 32.5113C25.1804 32.5113 25.0025 34.8009 23.4596 36.8488C26.3783 34.6409 26.6612 31.0309 26.6612 31.0309ZM39.04 65.7851C18.2292 71.3901 7.21916 47.2726 3.88583 34.7551C2.34583 28.9768 1.67333 24.6009 1.49416 21.7768C1.47712 21.5213 1.4806 21.265 1.50458 21.0101C0.425412 21.0747 -0.0916717 21.6359 0.0133283 23.258C0.192495 26.0801 0.864995 30.4559 2.40499 36.2359C5.73708 48.7518 16.7483 72.8693 37.5592 67.2643C42.0887 66.0438 45.4917 63.8213 48.0467 60.9838C45.6917 63.1105 42.745 64.7851 39.04 65.7851ZM42.95 16.2705V17.7518H51.1125C50.9454 17.2272 50.7767 16.7547 50.6092 16.2705H42.95Z" fill="#2D4552"/>
<path d="M52.9375 28.4686C56.6084 29.5116 58.55 32.0853 59.5763 34.3628L63.6696 35.5253C63.6696 35.5253 63.1113 27.5536 55.9009 25.5057C49.1554 23.5891 45.0046 29.2536 44.4996 29.9866C46.4621 28.5886 49.3271 27.4441 52.9375 28.4686ZM85.5196 34.3995C78.7679 32.4745 74.6188 38.1507 74.1213 38.8732C76.085 37.477 78.9488 36.332 82.5575 37.3611C86.2229 38.4053 88.1625 40.9761 89.1921 43.2553L93.2909 44.422C93.2909 44.422 92.7238 36.4491 85.5196 34.3995ZM81.4529 55.4174L47.4038 45.8986C47.4038 45.8986 47.7725 47.7674 49.1867 50.1874L77.8546 58.2016C80.2146 56.8361 81.4529 55.4174 81.4529 55.4174ZM57.8467 75.9065C30.8863 68.6782 34.1454 34.3274 38.5079 18.0499C40.3042 11.3416 42.1509 6.35572 43.6825 3.01322C42.7688 2.8253 42.0117 3.30655 41.2642 4.82738C39.6375 8.12489 37.5584 13.4945 35.5467 21.0111C31.1854 37.2886 27.9259 71.6386 54.885 78.867C67.5921 82.2711 77.4917 77.0974 84.8709 68.9715C77.8667 75.3157 68.9234 78.8728 57.8467 75.9065Z" fill="#2D4552"/>
<path d="M42.9502 57.7358V50.8037L23.6907 56.2653C23.6907 56.2653 25.1136 47.9962 35.1582 45.147C38.2044 44.2837 40.8036 44.2895 42.9502 44.7041V16.2712H52.594C51.544 13.0266 50.5282 10.5287 49.6748 8.79285C48.2636 5.91993 46.8169 7.82452 43.5327 10.5716C41.2194 12.5041 35.3732 16.627 26.5752 18.9974C17.7777 21.3699 10.6648 20.7408 7.69733 20.2266C3.49024 19.5008 1.28983 18.5766 1.49566 21.777C1.67483 24.5995 2.34691 28.9758 3.88733 34.7554C7.21899 47.2716 18.2307 71.3887 39.0415 65.7837C44.4773 64.3191 48.314 61.4237 50.9736 57.7337H42.9502V57.7353V57.7358ZM11.8719 34.9274L26.6611 31.0316C26.6611 31.0316 26.2302 36.7208 20.6861 38.1824C15.1402 39.6424 11.8719 34.9274 11.8719 34.9274Z" fill="#E2574C"/>
<path d="M98.6099 16.6C94.7657 17.2737 85.5428 18.1133 74.1449 15.0583C62.7437 12.005 55.1795 6.66498 52.1824 4.15498C47.9337 0.596645 46.0649 -1.87669 44.2257 1.86414C42.5999 5.16331 40.5203 10.5329 38.5078 18.05C34.147 34.3275 30.8874 68.6771 57.8466 75.9054C84.7995 83.1275 99.1491 51.7479 103.51 35.4691C105.523 27.9537 106.405 22.2629 106.648 18.5933C106.925 14.4366 104.069 15.6433 98.6099 16.6ZM44.4449 30.0671C44.4449 30.0671 48.6932 23.4591 55.8991 25.5075C63.1095 27.5554 63.6678 35.5266 63.6678 35.5266L44.4449 30.0671ZM62.0345 59.7183C49.3599 56.0058 47.4053 45.8987 47.4053 45.8987L81.4528 55.4179C81.4528 55.4162 74.5803 63.3846 62.0345 59.7179V59.7183ZM74.072 38.9475C74.072 38.9475 78.3149 32.3446 85.5195 34.3983C92.7237 36.4496 93.2907 44.4208 93.2907 44.4208L74.0724 38.9475H74.072Z" fill="#2EAD33"/>
<path d="M36.2201 52.7128L23.6909 56.2636C23.6909 56.2636 25.0518 48.5099 34.2818 45.4374L27.1876 18.8115L26.5747 18.9978C17.7768 21.3703 10.6643 20.7411 7.69676 20.2269C3.48968 19.5015 1.28885 18.5769 1.49468 21.7778C1.67385 24.6003 2.34635 28.9761 3.88635 34.7557C7.21843 47.2719 18.2301 71.389 39.0405 65.784L39.6534 65.5915L36.2205 52.7124L36.2201 52.7128ZM11.8722 34.9274L26.6613 31.0311C26.6613 31.0311 26.2305 36.7203 20.6863 38.1819C15.1405 39.6419 11.8722 34.9274 11.8722 34.9274Z" fill="#D65348"/>
<path d="M62.6062 59.8576L62.0328 59.718C49.3582 56.0055 47.4037 45.8988 47.4037 45.8988L64.9607 50.8063L74.2557 15.088L74.1432 15.0588C62.7424 12.0051 55.1782 6.6651 52.1807 4.15468C47.9324 0.596346 46.0632 -1.87657 44.2241 1.86426C42.5999 5.16343 40.5203 10.533 38.5078 18.0501C34.147 34.3276 30.8874 68.6772 57.8466 75.9051L58.3991 76.0301L62.6062 59.8576ZM44.4449 30.0668C44.4449 30.0668 48.6932 23.4588 55.8991 25.5072C63.1095 27.5551 63.6678 35.5263 63.6678 35.5263L44.4449 30.0668Z" fill="#1D8D22"/>
<path d="M36.8581 52.5295L33.4981 53.4833C34.2923 57.9583 35.6915 62.2529 37.8873 66.0466C38.2698 65.9624 38.649 65.8899 39.0381 65.7833C40.0586 65.5083 41.0048 65.167 41.9156 64.7954C39.4615 61.1537 37.8381 56.9604 36.8581 52.5295ZM35.5465 21.0112C33.8198 27.4558 32.2748 36.732 32.7002 46.0362C33.4611 45.7058 34.2652 45.3979 35.1586 45.1445L35.7802 45.0054C35.0219 35.067 36.6611 24.9399 38.5077 18.0495C38.9455 16.4153 39.4141 14.7894 39.9131 13.1729C39.1 13.6929 38.2698 14.1858 37.424 14.6508C36.7432 16.7543 36.1171 18.8752 35.5465 21.0112Z" fill="#C04B41"/>
</g>
<defs>
<clipPath id="clip0_57_14451">
<rect width="106.667" height="80" fill="white"/>
</clipPath>
</defs>
</svg>
