<svg width="81" height="80" viewBox="0 0 81 80" fill="none" xmlns="http://www.w3.org/2000/svg">
<g clip-path="url(#clip0_57_14461)">
<path d="M61.9165 0H19.4165C9.06116 0 0.666504 8.39466 0.666504 18.75V61.25C0.666504 71.6053 9.06116 80 19.4165 80H61.9165C72.2718 80 80.6665 71.6053 80.6665 61.25V18.75C80.6665 8.39466 72.2718 0 61.9165 0Z" fill="#FF6C37"/>
<path d="M53.4983 27.6916L37.7046 43.4857L33.2505 39.032C48.7827 23.5001 50.3174 24.8476 53.4983 27.6916Z" fill="#EEEEEE"/>
<path d="M37.7041 43.8591C37.5916 43.8591 37.5169 43.8219 37.4419 43.7469L32.9506 39.2932C32.9152 39.2594 32.8869 39.2188 32.8676 39.1737C32.8483 39.1287 32.8384 39.0803 32.8384 39.0313C32.8384 38.9823 32.8483 38.9338 32.8676 38.8888C32.8869 38.8438 32.9152 38.8032 32.9506 38.7694C48.7447 22.975 50.3913 24.4722 53.7225 27.4663C53.7975 27.5413 53.8347 27.6163 53.8347 27.7285C53.8347 27.841 53.7975 27.9157 53.7225 27.99L37.9285 43.7469C37.8913 43.8219 37.7788 43.8591 37.7041 43.8591ZM33.7741 39.0313L37.7041 42.961L52.9366 27.7285C50.1672 25.2582 48.2956 24.5097 33.7741 39.0313Z" fill="#FF6C37"/>
<path d="M42.2328 48.0138L37.9287 43.7098L53.7228 27.916C57.9521 32.1823 51.6268 39.1063 42.2328 48.0138Z" fill="#EEEEEE"/>
<path d="M42.2327 48.3887C42.1202 48.3887 42.0459 48.3512 41.9709 48.2762L37.6668 43.9721C37.5918 43.8974 37.5918 43.8224 37.5918 43.7102C37.5918 43.5977 37.6293 43.523 37.7043 43.448L53.498 27.6543C53.5318 27.6188 53.5725 27.5905 53.6175 27.5712C53.6626 27.5519 53.7111 27.542 53.7601 27.542C53.8091 27.542 53.8576 27.5519 53.9026 27.5712C53.9477 27.5905 53.9883 27.6188 54.0221 27.6543C54.5 28.0965 54.8775 28.6359 55.1293 29.2363C55.3811 29.8367 55.5013 30.4841 55.4818 31.1349C55.4071 35.289 50.6912 40.5662 42.5321 48.2762C42.4199 48.3512 42.3074 48.3887 42.2327 48.3887ZM38.4527 43.7102C40.8477 46.1427 41.8587 47.1162 42.2327 47.4902C48.5205 41.5021 54.6209 35.364 54.6584 31.1349C54.6959 30.1618 54.3218 29.1887 53.6852 28.4399L38.4527 43.7102Z" fill="#FF6C37"/>
<path d="M33.3252 39.1434L36.5064 42.3247C36.5811 42.3997 36.5811 42.4744 36.5064 42.5494C36.4689 42.5869 36.4689 42.5869 36.4317 42.5869L29.8442 44.009C29.5077 44.0465 29.2083 43.8219 29.1333 43.485C29.0958 43.2978 29.1708 43.1109 29.2833 42.9984L33.1005 39.1809C33.1755 39.1059 33.2877 39.0684 33.3252 39.1434Z" fill="#EEEEEE"/>
<path d="M29.7319 44.3839C29.1707 44.3839 28.7588 43.9345 28.7588 43.3729C28.7588 43.1114 28.8713 42.8492 29.0585 42.662L32.8757 38.8445C33.1004 38.6573 33.4 38.6573 33.6244 38.8445L36.8057 42.0257C37.03 42.2129 37.03 42.5498 36.8057 42.7742C36.7307 42.8492 36.656 42.8867 36.5435 42.9242L29.9566 44.3464C29.8816 44.3464 29.8066 44.3839 29.7319 44.3839ZM33.2129 39.5554L29.545 43.2232C29.47 43.2982 29.4325 43.4104 29.5075 43.5226C29.545 43.6351 29.6569 43.6726 29.7694 43.6351L35.9447 42.2876L33.2129 39.5554Z" fill="#FF6C37"/>
<path d="M61.8445 18.9333C59.4492 16.613 55.5942 16.6877 53.2736 19.1205C50.9533 21.553 51.0283 25.3705 53.4608 27.6912C54.4211 28.619 55.6615 29.203 56.9885 29.352C58.3155 29.5009 59.6546 29.2065 60.7967 28.5146L56.5298 24.2477L61.8445 18.9333Z" fill="#EEEEEE"/>
<path d="M57.6525 29.75C54.0972 29.75 51.2153 26.8681 51.2153 23.3125C51.2153 19.7569 54.0972 16.875 57.6525 16.875C59.2994 16.875 60.9088 17.5113 62.1063 18.6716C62.1813 18.7466 62.2188 18.8216 62.2188 18.9334C62.2188 19.0459 62.1813 19.1209 62.1063 19.1956L57.0538 24.2481L61.021 28.2153C61.171 28.3653 61.171 28.5897 61.021 28.7394L60.9463 28.8144C59.9731 29.4128 58.8128 29.75 57.6525 29.75ZM57.6525 17.6612C54.5088 17.6612 51.9638 20.2059 52.0013 23.35C52.0013 26.4938 54.546 29.0387 57.69 29.0016C58.551 29.0016 59.4116 28.8141 60.1975 28.4025L56.2678 24.5103C56.1928 24.4353 56.1556 24.3603 56.1556 24.2481C56.1556 24.1356 56.1928 24.0609 56.2678 23.9862L61.2831 18.9709C60.2725 18.1103 59 17.6612 57.6525 17.6612Z" fill="#FF6C37"/>
<path d="M61.9567 19.0457L61.882 18.9707L56.5298 24.2479L60.7592 28.4773C61.171 28.2151 61.5823 27.916 61.9195 27.5791C62.4865 27.0237 62.9377 26.3612 63.2468 25.6302C63.5559 24.8991 63.7169 24.1139 63.7203 23.3202C63.7238 22.5264 63.5697 21.7399 63.2669 21.0062C62.9642 20.2724 62.5188 19.6061 61.9567 19.0457Z" fill="#EEEEEE"/>
<path d="M60.7967 28.8893C60.6842 28.8893 60.6095 28.8518 60.5345 28.7768L56.2679 24.5102C56.1929 24.4352 56.1558 24.3605 56.1558 24.2483C56.1558 24.1358 56.1929 24.0608 56.2679 23.9861L61.5823 18.6721C61.7323 18.5221 61.9567 18.5221 62.1064 18.6721L62.2189 18.7471C64.7264 21.2543 64.7264 25.2964 62.2564 27.8418C61.882 28.2158 61.4701 28.5527 61.0211 28.8146C60.9089 28.8521 60.8342 28.8893 60.7967 28.8893ZM57.0539 24.2483L60.8342 28.0283C61.1336 27.8414 61.4329 27.5793 61.6573 27.3546C63.7908 25.2211 63.9029 21.7405 61.8445 19.4952L57.0539 24.2483Z" fill="#FF6C37"/>
<path d="M54.1348 28.365C53.7028 27.9337 53.1172 27.6914 52.5067 27.6914C51.8962 27.6914 51.3106 27.9337 50.8786 28.365L36.7686 42.475L39.1267 44.8328L54.0598 31.7338C55.0329 30.91 55.1076 29.4503 54.2845 28.4775C54.2095 28.44 54.172 28.4025 54.1348 28.365Z" fill="#EEEEEE"/>
<path d="M39.0892 45.2073C38.977 45.2073 38.902 45.1698 38.827 45.0952L36.4692 42.7373C36.4337 42.7035 36.4055 42.6629 36.3862 42.6179C36.3669 42.5728 36.3569 42.5243 36.3569 42.4753C36.3569 42.4263 36.3669 42.3778 36.3862 42.3328C36.4055 42.2877 36.4337 42.2471 36.4692 42.2133L50.5789 28.1033C50.8266 27.8542 51.1212 27.6566 51.4456 27.5217C51.7699 27.3868 52.1178 27.3174 52.4691 27.3174C52.8204 27.3174 53.1682 27.3868 53.4926 27.5217C53.817 27.6566 54.1115 27.8542 54.3592 28.1033C54.6083 28.351 54.806 28.6455 54.9409 28.9699C55.0758 29.2943 55.1453 29.6421 55.1453 29.9934C55.1453 30.3448 55.0758 30.6926 54.9409 31.017C54.806 31.3414 54.6083 31.6359 54.3592 31.8836L54.247 31.9958L39.3136 45.0952C39.2764 45.1698 39.2014 45.2073 39.0892 45.2073ZM37.2927 42.4752L39.1267 44.3092L53.798 31.4342C54.6211 30.7605 54.6961 29.5255 54.0224 28.7023C53.3486 27.8789 52.1136 27.8042 51.2902 28.4773C51.253 28.5148 51.2155 28.5523 51.1405 28.5898L37.2927 42.4752Z" fill="#FF6C37"/>
<path d="M25.9519 58.5315C25.8019 58.6062 25.7272 58.7559 25.7644 58.9056L26.401 61.6006C26.551 61.9747 26.326 62.424 25.9144 62.5362C25.6151 62.6484 25.2785 62.5362 25.0913 62.3118L20.9741 58.2321L34.4104 44.7959L39.0513 44.8706L42.1951 48.0146C41.4466 48.6509 36.9179 53.0297 25.9519 58.5315Z" fill="#EEEEEE"/>
<path d="M25.6526 62.9096C25.3532 62.9096 25.0539 62.7975 24.8667 62.5731L20.787 58.4934C20.712 58.4187 20.6748 58.3437 20.6748 58.2315C20.6748 58.1193 20.7123 58.0443 20.7873 57.9693L34.2232 44.5334C34.2982 44.4584 34.4104 44.4209 34.4854 44.4209L39.1264 44.4959C39.2386 44.4959 39.3132 44.5334 39.3879 44.6081L42.532 47.7518C42.607 47.8268 42.6442 47.939 42.6442 48.0512C42.6442 48.1637 42.607 48.2384 42.4945 48.3134L42.2326 48.5381C38.2654 52.0184 32.8757 55.4993 26.1764 58.8303L26.8129 61.4875C26.9251 61.974 26.7004 62.4981 26.2514 62.76C26.0267 62.8721 25.8398 62.9096 25.6526 62.9096ZM21.5354 58.2315L25.3907 62.049C25.5026 62.2362 25.7273 62.3109 25.9145 62.1987C26.1017 62.0865 26.1767 61.8618 26.0645 61.6746L25.4282 58.98C25.3532 58.6431 25.5026 58.3437 25.8023 58.194C32.4267 54.8631 37.7789 51.42 41.7086 48.014L38.9392 45.2443L34.6351 45.1693L21.5354 58.2315Z" fill="#FF6C37"/>
<path d="M17.7929 61.4502L21.0117 58.2314L25.8023 63.0221L18.1673 62.4983C17.8304 62.4608 17.6057 62.1614 17.6432 61.8243C17.6432 61.6746 17.6804 61.5249 17.7929 61.4502Z" fill="#EEEEEE"/>
<path d="M25.8025 63.3595L18.13 62.8355C17.5685 62.798 17.1941 62.3117 17.2316 61.7502C17.2691 61.5255 17.3441 61.3011 17.5313 61.1514L20.75 57.9327C20.7838 57.8972 20.8244 57.8689 20.8694 57.8497C20.9145 57.8304 20.9629 57.8204 21.0119 57.8204C21.0609 57.8204 21.1093 57.8304 21.1544 57.8497C21.1994 57.8689 21.24 57.8972 21.2738 57.9327L26.0644 62.7233C26.1769 62.8355 26.2144 62.9852 26.1394 63.1352C26.0644 63.2849 25.9519 63.3595 25.8025 63.3595ZM21.0119 58.7561L18.055 61.7127C17.9428 61.7877 17.9428 61.9749 18.055 62.0495C18.0925 62.087 18.13 62.1245 18.205 62.1245L24.8294 62.5736L21.0119 58.7561ZM33.1006 46.5177C32.876 46.5177 32.7263 46.3305 32.7263 46.1433C32.7263 46.0311 32.7638 45.9564 32.8388 45.8814L36.4691 42.2511C36.5029 42.2156 36.5435 42.1873 36.5886 42.168C36.6336 42.1486 36.6821 42.1387 36.7311 42.1387C36.7801 42.1387 36.8286 42.1486 36.8737 42.168C36.9187 42.1873 36.9594 42.2156 36.9931 42.2511L39.351 44.6089C39.4632 44.7211 39.5007 44.8333 39.4632 44.9833C39.4256 45.0955 39.3135 45.2077 39.1641 45.2452L33.1756 46.5177H33.1006ZM36.731 43.037L34.261 45.5073L38.3028 44.6461L36.731 43.037Z" fill="#FF6C37"/>
<path d="M39.0517 44.8701L34.9348 45.7686C34.6355 45.8436 34.3358 45.6564 34.2611 45.357C34.2236 45.1698 34.2611 44.9826 34.4108 44.8329L36.6936 42.5498L39.0517 44.8701Z" fill="#EEEEEE"/>
<path d="M34.8595 46.1426C34.7363 46.1439 34.6141 46.1205 34.5 46.074C34.3859 46.0274 34.2823 45.9585 34.1951 45.8714C34.108 45.7843 34.0391 45.6806 33.9925 45.5665C33.946 45.4524 33.9226 45.3302 33.9239 45.207C33.9239 44.9451 34.0361 44.7204 34.1858 44.5336L36.4689 42.2504C36.5026 42.2149 36.5433 42.1866 36.5883 42.1673C36.6334 42.148 36.6819 42.138 36.7309 42.138C36.7799 42.138 36.8284 42.148 36.8735 42.1673C36.9185 42.1866 36.9592 42.2149 36.9929 42.2504L39.3507 44.6083C39.4629 44.7204 39.5004 44.8326 39.4629 44.9826C39.4254 45.0948 39.3133 45.207 39.1639 45.2445L35.0467 46.1426H34.8595ZM36.7307 43.0364L34.7098 45.0573C34.6351 45.1323 34.6351 45.207 34.6723 45.282C34.7098 45.3567 34.7848 45.3942 34.897 45.3942L38.3401 44.6454L36.7307 43.0364ZM61.9939 22.6383C61.9192 22.4139 61.657 22.3017 61.4323 22.3767C61.2079 22.4511 61.0957 22.7133 61.1707 22.9379C61.1707 22.9754 61.2079 23.0129 61.2079 23.0501C61.4323 23.4995 61.3579 24.0608 61.0582 24.4723C60.9086 24.6598 60.9461 24.9217 61.0957 25.0714C61.2829 25.2208 61.5448 25.1839 61.6945 24.9964C62.2561 24.2851 62.3682 23.387 61.9939 22.6383Z" fill="#FF6C37"/>
</g>
<defs>
<clipPath id="clip0_57_14461">
<rect width="80" height="80" fill="white" transform="translate(0.666504)"/>
</clipPath>
</defs>
</svg>
