<?xml version="1.0" encoding="utf-8"?>
<!-- Generator: Adobe Illustrator 24.3.0, SVG Export Plug-In . SVG Version: 6.00 Build 0)  -->
<svg version="1.1" id="Layer_1" xmlns="http://www.w3.org/2000/svg" xmlns:xlink="http://www.w3.org/1999/xlink" x="0px" y="0px"
	 viewBox="0 0 81 80" style="enable-background:new 0 0 81 80;" xml:space="preserve">
<style type="text/css">
	.st0{fill:#F7DF1E;}
</style>
<path class="st0" d="M59.5,57.3H21.4c-5.4,0-5.4-8.2,0-8.2h38.2C65.1,49,65.1,57.3,59.5,57.3z M61.1,31l-9.5,6.4
	c-4.5,3.1-9.1-3.8-4.6-6.8l9.5-6.4C61,21.2,65.6,28,61.1,31L61.1,31z M71.9,61.7c0,0.8-0.3,1.5-0.9,2.1L64,70.9
	c-0.6,0.6-1.3,0.9-2.1,0.9H18.4c-0.8,0-1.5-0.3-2.1-0.9l-7.1-7.1c-0.6-0.6-0.9-1.3-0.9-2.1V18.3c0-0.4,0.1-0.8,0.2-1.1
	c0.1-0.4,0.4-0.7,0.6-1l7.1-7.1c0.6-0.6,1.3-0.9,2.1-0.9h43.5c0.8,0,1.5,0.3,2.1,0.9l7.1,7.1c0.3,0.3,0.5,0.6,0.6,1
	c0.1,0.4,0.2,0.7,0.2,1.1L71.9,61.7L71.9,61.7z M78,11.5l-9.3-9.3c-0.7-0.7-1.5-1.2-2.4-1.6S64.4,0,63.4,0H16.9c-1,0-2,0.2-2.9,0.6
	c-0.9,0.4-1.7,0.9-2.4,1.6l-9.3,9.3c-1.4,1.4-2.2,3.3-2.2,5.3v46.5c0,2,0.8,3.9,2.2,5.3l9.3,9.3c1.4,1.4,3.3,2.2,5.3,2.2h46.5
	c2,0,3.9-0.8,5.3-2.2l9.3-9.3c0.7-0.7,1.2-1.5,1.6-2.4s0.6-1.9,0.6-2.9V16.7c0-1-0.2-2-0.6-2.9C79.2,13,78.7,12.1,78,11.5L78,11.5z
	 M39.4,34.1c0,5.5-8.2,5.5-8.2,0c0-4.1-6.2-4.1-6.2,0c0,5.5-8.2,5.5-8.2,0C17.5,19,38.7,19.1,39.4,34.1z"/>
</svg>
