<svg width="81" height="80" viewBox="0 0 81 80" fill="none" xmlns="http://www.w3.org/2000/svg">
<g clip-path="url(#clip0_57_14488)">
<mask id="mask0_57_14488" style="mask-type:luminance" maskUnits="userSpaceOnUse" x="0" y="0" width="81" height="80">
<path d="M61.9165 0H19.4165C9.06116 0 0.666504 8.39466 0.666504 18.75V61.25C0.666504 71.6053 9.06116 80 19.4165 80H61.9165C72.2718 80 80.6665 71.6053 80.6665 61.25V18.75C80.6665 8.39466 72.2718 0 61.9165 0Z" fill="white"/>
</mask>
<g mask="url(#mask0_57_14488)">
<path d="M61.9165 0H19.4165C9.06116 0 0.666504 8.39466 0.666504 18.75V61.25C0.666504 71.6053 9.06116 80 19.4165 80H61.9165C72.2718 80 80.6665 71.6053 80.6665 61.25V18.75C80.6665 8.39466 72.2718 0 61.9165 0Z" fill="#59B943"/>
<path fill-rule="evenodd" clip-rule="evenodd" d="M73.7215 -1.875H80.6665V81.5625H80.0209C80.1016 81.5628 80.1816 81.5471 80.2562 81.5164C80.3309 81.4857 80.3987 81.4406 80.4558 81.3836C80.513 81.3266 80.5583 81.2588 80.5892 81.1843C80.6201 81.1097 80.636 81.0298 80.6359 80.9491V10.5425C80.6845 10.3992 80.6743 10.2424 80.6073 10.1066C80.5404 9.9708 80.4223 9.86716 80.279 9.81844C80.1356 9.76978 79.9787 9.77991 79.8427 9.84661C79.7067 9.91332 79.6027 10.0312 79.5534 10.1744L53.7171 39.1075C53.6433 39.1871 53.5539 39.2507 53.4544 39.2941C53.3548 39.3376 53.2474 39.36 53.1388 39.36C53.0303 39.36 52.9229 39.3376 52.8233 39.2941C52.7238 39.2507 52.6344 39.1871 52.5606 39.1075L39.3718 25.5366C39.2601 25.3974 39.1993 25.2244 39.1993 25.0459C39.1993 24.8675 39.2601 24.6944 39.3718 24.5553L43.7268 18.9844C43.7999 18.883 43.896 18.8004 44.0073 18.7435C44.1185 18.6865 44.2417 18.6568 44.3667 18.6568C44.4916 18.6568 44.6148 18.6865 44.7261 18.7435C44.8373 18.8004 44.9334 18.883 45.0065 18.9844L52.3884 27.1319C52.4624 27.2196 52.5547 27.2901 52.6588 27.3385C52.763 27.3869 52.8764 27.412 52.9912 27.412C53.106 27.412 53.2194 27.3869 53.3235 27.3385C53.4277 27.2901 53.52 27.2196 53.594 27.1319L74.1646 -0.991563C74.2218 -1.07469 74.2556 -1.17156 74.2628 -1.27219C74.2694 -1.37277 74.249 -1.4733 74.2038 -1.5634C74.1586 -1.65349 74.0902 -1.72989 74.0056 -1.78469C73.9206 -1.83958 73.8225 -1.87076 73.7215 -1.875ZM1.2815 -1.875H0.666504V-1.26156C0.666504 -1.42406 0.731191 -1.58031 0.846816 -1.69531C0.962129 -1.81031 1.11869 -1.875 1.2815 -1.875ZM0.666504 80.9491V81.5625H1.2815C1.11855 81.5624 0.962256 81.4978 0.846816 81.3828C0.789712 81.3259 0.744391 81.2583 0.71345 81.1839C0.682509 81.1095 0.666556 81.0297 0.666504 80.9491ZM53.469 50.95C51.943 50.9032 50.4547 51.4295 49.2974 52.4253C48.144 53.4172 47.4075 54.8079 47.2353 56.3194C47.2278 56.3487 47.2273 56.3793 47.2336 56.4088C47.2399 56.4384 47.253 56.466 47.2718 56.4897C47.291 56.5132 47.3153 56.532 47.3429 56.5446C47.3704 56.5573 47.4006 56.5634 47.4309 56.5625H59.5318C59.5596 56.5625 59.5872 56.5567 59.6126 56.5454C59.6381 56.5342 59.6609 56.5178 59.6796 56.4972C59.6982 56.4766 59.7121 56.4522 59.7204 56.4257C59.7286 56.3992 59.731 56.3713 59.7274 56.3438C59.6072 54.8048 58.883 53.376 57.7131 52.3691C56.5388 51.3584 55.0149 50.8489 53.469 50.95ZM8.83557 67.5009C12.7274 70.9093 17.7928 72.6695 22.9596 72.4091H22.9346C32.2606 72.4091 36.7634 67.6481 36.7634 61.4147C36.7634 53.5969 29.4887 51.8553 23.7509 50.4816C20.0153 49.5869 16.9312 48.8488 16.9312 46.6906C16.9312 44.6291 18.7028 43.2303 21.8521 43.2303C25.2795 43.1979 28.6144 44.3412 31.3009 46.4697C31.3802 46.5376 31.4727 46.5884 31.5725 46.6191C31.6724 46.6497 31.7774 46.6595 31.8812 46.6478C31.9849 46.6362 32.0851 46.6035 32.1757 46.5517C32.2663 46.5 32.3454 46.4303 32.4081 46.3469L35.4346 42.1506C35.5713 42.009 35.6477 41.8198 35.6477 41.623C35.6477 41.4261 35.5713 41.237 35.4346 41.0953C31.7912 38.1434 27.2027 36.6093 22.5165 36.7762C14.3474 36.7762 9.42619 41.5372 9.42619 47.255C9.42619 54.9431 16.4259 56.6009 22.1187 57.9491C26.0203 58.8731 29.3078 59.6516 29.3078 62.1266C29.3078 64.0897 27.3393 65.9547 23.304 65.9547C19.4744 65.9672 15.7821 64.5293 12.9696 61.93C12.8387 61.8501 12.6868 61.8116 12.5337 61.8194C12.3805 61.8272 12.2333 61.881 12.1112 61.9737C12.0302 62.0351 11.9622 62.1121 11.9112 62.2L8.83557 66.4947C8.71283 66.6335 8.64508 66.8125 8.64508 66.9978C8.64508 67.1831 8.71283 67.3621 8.83557 67.5009ZM66.2699 60.7247C66.3034 60.6397 66.3187 60.5487 66.3153 60.4578L66.2906 59.6725C66.2906 51.3041 61.0987 45.5863 53.4462 45.5863C51.6806 45.5557 49.927 45.8824 48.2909 46.5469C46.656 47.2109 45.1726 48.1991 43.9299 49.4519C42.6884 50.7035 41.7138 52.1941 41.0653 53.8334C40.4173 55.4716 40.109 57.2244 40.159 58.9853C40.0878 60.7895 40.3953 62.5887 41.0615 64.2669C41.7286 65.9461 42.7395 67.4673 44.0293 68.7328C45.3205 69.9995 46.8619 70.9827 48.5549 71.6194C50.249 72.2569 52.0574 72.5341 53.8646 72.4334C57.4815 72.5248 61.0274 71.4207 63.9531 69.2922C64.086 69.1862 64.1747 69.0345 64.2019 68.8667C64.2292 68.6989 64.1931 68.527 64.1006 68.3844L61.8862 65.1694C61.8087 65.0508 61.6954 64.96 61.5628 64.9102C61.4302 64.8603 61.2851 64.854 61.1487 64.8922C61.0581 64.9175 60.974 64.9619 60.9018 65.0222C59.053 66.3187 56.8604 67.0363 54.6028 67.0837C52.8823 67.2255 51.171 66.72 49.8037 65.6663C48.4384 64.614 47.5169 63.0884 47.2209 61.3903C47.2174 61.3613 47.2198 61.3318 47.2279 61.3037C47.236 61.2755 47.2496 61.2493 47.2681 61.2266C47.2864 61.2037 47.309 61.1848 47.3347 61.1708C47.3604 61.1568 47.3886 61.148 47.4178 61.145H65.6262C65.7178 61.1484 65.8087 61.1328 65.894 61.0997C65.9792 61.0666 66.0566 61.0161 66.1213 60.9516C66.186 60.8871 66.2366 60.8098 66.2699 60.7247Z" fill="white"/>
</g>
</g>
<defs>
<clipPath id="clip0_57_14488">
<rect width="80" height="80" fill="white" transform="translate(0.666504)"/>
</clipPath>
</defs>
</svg>
