<?xml version="1.0" encoding="utf-8"?>
<!-- Generator: Adobe Illustrator 24.3.0, SVG Export Plug-In . SVG Version: 6.00 Build 0)  -->
<svg version="1.1" id="Layer_1" xmlns="http://www.w3.org/2000/svg" xmlns:xlink="http://www.w3.org/1999/xlink" x="0px" y="0px"
	 viewBox="0 0 800 800" style="enable-background:new 0 0 800 800;" xml:space="preserve">
<style type="text/css">
	.st0{fill:#59B943;}
</style>
<g>
	<path class="st0" d="M399.1,354.6c-31.2,0-53.8,20.4-53.8,50.9s25.4,50.9,56.6,50.9c18.9,0,35.5-7.5,45.8-20.1l-21.6-12.5
		c-5.7,6.3-14.4,9.9-24.2,9.9c-13.6,0-25.1-7.1-29.3-18.4h79.3c0.6-3.2,1-6.5,1-9.9C452.9,375,430.3,354.6,399.1,354.6z
		 M372.3,395.7c3.5-11.3,13.2-18.4,26.7-18.4c13.6,0,23.2,7.1,26.7,18.4H372.3L372.3,395.7z M703.8,354.6
		c-31.2,0-53.8,20.4-53.8,50.9s25.4,50.9,56.6,50.9c18.9,0,35.5-7.5,45.8-20.1l-21.6-12.5c-5.7,6.3-14.4,9.9-24.2,9.9
		c-13.6,0-25.1-7.1-29.3-18.4h79.3c0.6-3.2,1-6.5,1-9.9C757.6,375,735,354.6,703.8,354.6L703.8,354.6z M677.1,395.7
		c3.5-11.3,13.2-18.4,26.7-18.4c13.6,0,23.2,7.1,26.7,18.4H677.1z M566.6,405.6c0,17,11.1,28.3,28.3,28.3c11.7,0,20.4-5.3,24.9-13.9
		l21.7,12.5c-9,15-25.9,24-46.6,24c-31.3,0-53.8-20.4-53.8-50.9s22.5-50.9,53.8-50.9c20.8,0,37.6,9,46.6,24l-21.7,12.5
		c-4.5-8.6-13.2-13.9-24.9-13.9C577.7,377.3,566.6,388.6,566.6,405.6z M800,323.5v130.2h-25.5V323.5H800z M104.6,309.4l104.6,181.1
		H0L104.6,309.4z M366,323.5l-78.4,135.8l-78.4-135.8h29.4l49,84.9l49-84.9H366z M532.7,357.5v27.4c-2.8-0.8-5.8-1.4-9.1-1.4
		c-16.4,0-28.3,11.3-28.3,28.3v41.9h-25.5v-96.2h25.5v26C495.3,369.1,512,357.5,532.7,357.5z"/>
</g>
</svg>
